<?xml version="1.0" encoding="utf-8"?>
<!-- Generator: Adobe Illustrator 20.0.0, SVG Export Plug-In . SVG Version: 6.00 Build 0)  -->
<svg version="1.1" id="Layer_1" xmlns="http://www.w3.org/2000/svg" xmlns:xlink="http://www.w3.org/1999/xlink" x="0px" y="0px"
	 viewBox="0 0 80 80" style="enable-background:new 0 0 80 80;" xml:space="preserve">
<style type="text/css">
	.st0{fill-rule:evenodd;clip-rule:evenodd;fill:#FFFFFF;}
</style>
<g>
	<path id="XMLID_1_" class="st0" d="M34.7,48.5c0-3.2,0-6.4,0-9.6c0-0.5-0.1-0.7-0.7-0.7c-1,0-2,0-3,0c-0.4,0-0.6-0.1-0.5-0.5
		c0-2,0-4,0-6c0-0.4,0.1-0.5,0.5-0.5c1,0,2,0,3,0c0.6,0,0.7-0.2,0.7-0.7c0-1.5,0-3,0-4.5c0-1.8,0.5-3.6,1.6-5.1
		c1.4-1.9,3.4-2.8,5.7-2.9c2.3-0.1,4.7,0,7-0.1c0.3,0,0.4,0.1,0.4,0.4c0,2,0,4,0,6c0,0.4-0.1,0.5-0.5,0.5c-1.1,0-2.3,0-3.4,0
		c-1.5,0-2.4,0.8-2.5,2.3c-0.1,1.2,0,2.4,0,3.6c0,0.4,0.2,0.4,0.5,0.4c1.7,0,3.4,0,5.1,0c0.5,0,0.7,0.1,0.6,0.6c-0.2,2-0.4,4-0.6,6
		c0,0.5-0.2,0.5-0.7,0.5c-1.4,0-2.7,0-4.1,0c-1,0-0.9-0.1-0.9,0.8c0,6.2,0,12.5,0,18.7c0,0.7-0.2,0.8-0.8,0.8c-2.3,0-4.7,0-7,0
		c-0.7,0-0.8-0.2-0.8-0.8C34.7,54.7,34.7,51.6,34.7,48.5z"/>
</g>
</svg>
