<?xml version="1.0" encoding="utf-8"?>
<!-- Generator: Adobe Illustrator 20.0.0, SVG Export Plug-In . SVG Version: 6.00 Build 0)  -->
<svg version="1.1" id="Layer_1" xmlns="http://www.w3.org/2000/svg" xmlns:xlink="http://www.w3.org/1999/xlink" x="0px" y="0px"
	 viewBox="0 0 80 80" style="enable-background:new 0 0 80 80;" xml:space="preserve">
<style type="text/css">
	.st0{fill:#FFFFFF;}
</style>
<g>
	<g>
		<g>
			<path class="st0" d="M31,58h-8V32.2h8V58z M27,28.7c-2.6,0-4.6-2.1-4.6-4.6c0-2.6,2.1-4.6,4.6-4.6c2.6,0,4.6,2.1,4.6,4.6
				C31.7,26.6,29.6,28.7,27,28.7z M61,58h-8V45.5c0-3-0.1-6.8-4.2-6.8c-4.2,0-4.8,3.3-4.8,6.6V58h-8V32.2h7.7v3.5h0.1
				c1.1-2,3.7-4.2,7.6-4.2c8.1,0,9.6,5.3,9.6,12.3V58z"/>
		</g>
	</g>
</g>
</svg>
