<?xml version="1.0" encoding="utf-8"?>
<!-- Generator: Adobe Illustrator 20.0.0, SVG Export Plug-In . SVG Version: 6.00 Build 0)  -->
<svg version="1.1" id="Layer_1" xmlns="http://www.w3.org/2000/svg" xmlns:xlink="http://www.w3.org/1999/xlink" x="0px" y="0px"
	 viewBox="0 0 80 80" style="enable-background:new 0 0 80 80;" xml:space="preserve">
<style type="text/css">
	.st0{fill:url(#SVGID_1_);}
	.st1{fill:url(#SVGID_2_);}
</style>
<g>
	<linearGradient id="SVGID_1_" gradientUnits="userSpaceOnUse" x1="17.5" y1="38.95" x2="64.4023" y2="38.95">
		<stop  offset="0" style="stop-color:#D7757F"/>
		<stop  offset="1" style="stop-color:#FE56AE"/>
	</linearGradient>
	<path class="st0" d="M64.4,47.2L64.4,47.2l0-13.5c0-2.4-1-4.7-2.6-6.2c-0.9-0.9-2-1.6-3.3-2c-0.3-0.7-0.7-1.4-1.2-2
		c-0.9-1-2.3-1.6-3.7-1.6h-2.4c-1.5,0-2.8,0.6-3.7,1.6c-0.4,0.4-0.8,0.9-1,1.4H26.3c-2.4,0-4.7,1-6.2,2.6c-1.6,1.6-2.6,3.8-2.6,6.2
		v13.5c0,2.4,1,4.7,2.6,6.2c1.6,1.6,3.8,2.6,6.2,2.6h29.4c2.4,0,4.5-0.9,6.1-2.5c1.6-1.5,2.6-3.7,2.6-6.1L64.4,47.2z M59,50.7
		c-0.9,0.8-2,1.3-3.3,1.3H26.3c-1.4,0-2.5-0.5-3.4-1.4c-0.9-0.9-1.4-2-1.4-3.4V33.7c0-1.4,0.5-2.5,1.4-3.4c0.9-0.9,2-1.4,3.4-1.4
		h29.3c1.4,0,2.5,0.5,3.4,1.4c0.9,0.9,1.4,2,1.4,3.4v13.5l0,0l0,0.1C60.4,48.7,59.9,49.8,59,50.7z"/>
	<linearGradient id="SVGID_2_" gradientUnits="userSpaceOnUse" x1="29.2" y1="40.5" x2="49.4" y2="40.5">
		<stop  offset="0" style="stop-color:#D7757F"/>
		<stop  offset="1" style="stop-color:#FE56AE"/>
	</linearGradient>
	<path class="st1" d="M39.3,30.4c-5.6,0-10.1,4.5-10.1,10.1c0,5.6,4.5,10.1,10.1,10.1c5.6,0,10.1-4.5,10.1-10.1
		C49.4,34.9,44.9,30.4,39.3,30.4z M43.6,44.8c-1.1,1.1-2.6,1.8-4.3,1.8c-1.7,0-3.2-0.7-4.3-1.8c-1.1-1.1-1.8-2.6-1.8-4.3
		c0-1.7,0.7-3.2,1.8-4.3c1.1-1.1,2.6-1.8,4.3-1.8c1.7,0,3.2,0.7,4.3,1.8c1.1,1.1,1.8,2.6,1.8,4.3C45.4,42.2,44.7,43.7,43.6,44.8z"/>
</g>
</svg>
