<?xml version="1.0" encoding="utf-8"?>
<!-- Generator: Adobe Illustrator 20.0.0, SVG Export Plug-In . SVG Version: 6.00 Build 0)  -->
<svg version="1.1" id="Layer_1" xmlns="http://www.w3.org/2000/svg" xmlns:xlink="http://www.w3.org/1999/xlink" x="0px" y="0px"
	 viewBox="0 0 80 80" style="enable-background:new 0 0 80 80;" xml:space="preserve">
<style type="text/css">
	.st0{fill:#FFFFFF;}
</style>
<g>
	<g>
		<path class="st0" d="M78.6,75L66.6,63c4-5.8,3.5-13.7-1.7-18.9l-7.3-7.3c-0.5-0.5-1.2-0.8-1.8-0.8c-0.7,0-1.3,0.2-1.8,0.8
			L36.8,54.1c-0.5,0.5-0.8,1.1-0.8,1.8s0.3,1.3,0.8,1.8l7.3,7.3c2.8,2.8,6.5,4.3,10.4,4.3c3.1,0,6-0.9,8.5-2.7l11.9,11.9
			c1,1,2.6,1,3.6,0S79.6,76,78.6,75z M61.3,61.4c-1.8,1.8-4.2,2.8-6.8,2.8c-2.6,0-5-1-6.8-2.8l-5.5-5.5l13.6-13.6l5.5,5.5
			C65.1,51.6,65.1,57.6,61.3,61.4z"/>
		<path class="st0" d="M45.1,37.1c1-1,1-2.6,0-3.6l-5.6-5.6l2.7-2.7c1-1,1-2.6,0-3.6L35,14.2c-2.8-2.8-6.5-4.3-10.4-4.3
			c-3.1,0-6,0.9-8.4,2.7L4.9,1.3C4.4,0.8,3.7,0.6,3.1,0.6c-0.7,0-1.3,0.3-1.8,0.8c-1,1-1,2.6,0,3.6l11.2,11.2
			C8.4,21.9,9,29.9,14.1,35l7.3,7.3c1,1,2.6,1,3.6,0l2.7-2.7l5.6,5.6c1,1,2.6,1,3.6,0c1-1,1-2.6,0-3.6l-5.6-5.6l4.5-4.5l5.6,5.6
			C42.5,38.1,44.1,38.1,45.1,37.1z M36.8,23.3L23.2,36.8l-5.5-5.5c-3.7-3.7-3.7-9.8,0-13.6C19.6,16,22,15,24.5,15s5,1,6.8,2.8
			L36.8,23.3z"/>
	</g>
</g>
</svg>
