<?xml version="1.0" encoding="utf-8"?>
<!-- Generator: Adobe Illustrator 20.0.0, SVG Export Plug-In . SVG Version: 6.00 Build 0)  -->
<svg version="1.1" id="Layer_1" xmlns="http://www.w3.org/2000/svg" xmlns:xlink="http://www.w3.org/1999/xlink" x="0px" y="0px"
	 viewBox="0 0 80 80" style="enable-background:new 0 0 80 80;" xml:space="preserve">
<style type="text/css">
	.st0{fill:#FFFFFF;}
	.st1{fill:none;stroke:#FFFFFF;stroke-width:4;stroke-linecap:round;stroke-miterlimit:10;}
</style>
<title>Artboard 8</title>
<g>
	<path class="st0" d="M30.2,25.5c2.7,0,4.9,1,6.6,3l3.1,3.7l3.1-3.7c1.7-2,4-3,6.6-3c3.4,0,5.6,1.8,6.9,3.3c1.8,2,2.8,4.8,2.8,7.4
		c0,1.4-0.9,5.6-9,13.3c-0.3,0.3-0.7,0.6-1,0.9l2.9,2.8c5.5-5.1,11.1-11.6,11.1-17.1c0.1-7.1-5.4-14.7-13.7-14.7
		c-4.8,0-7.9,2.3-9.6,4.5c-1.8-2.1-4.8-4.5-9.6-4.5c-3.1,0-5.8,1.1-7.9,2.8l2.8,2.8C26.6,26.2,28.2,25.5,30.2,25.5z"/>
	<path class="st0" d="M39.9,58c-2-1.4-6.3-4.6-10.4-8.5c-8.1-7.6-9-11.8-9-13.3c0-2.6,1.1-5.4,2.8-7.4c0.3-0.3,0.6-0.7,1-1L22,24.7
		c-3.3,2.9-5.3,7.3-5.3,11.5c0,10.3,19.9,24.2,22.1,25.8c0.4,0.3,0.8,0.4,1.2,0.4s0.9-0.1,1.2-0.4c0.7-0.5,3-2,5.8-4.3l-2.5-3.2
		C42.6,56,40.9,57.2,39.9,58z"/>
</g>
<line class="st1" x1="17.7" y1="18.6" x2="62.6" y2="63.4"/>
</svg>
