<?xml version="1.0" encoding="utf-8"?>
<!-- Generator: Adobe Illustrator 20.0.0, SVG Export Plug-In . SVG Version: 6.00 Build 0)  -->
<svg version="1.1" id="Layer_1" xmlns="http://www.w3.org/2000/svg" xmlns:xlink="http://www.w3.org/1999/xlink" x="0px" y="0px"
	 viewBox="0 0 80 80" style="enable-background:new 0 0 80 80;" xml:space="preserve">
<style type="text/css">
	.st0{fill:#FFFFFF;}
</style>
<path class="st0" d="M44.2,18.5c-9,0-16.3,6.4-16.3,14.3s7.3,14.3,16.3,14.3c3.3,0,6.3-0.9,8.9-2.3c2.3,1.4,4.8,1.3,6.2,1.1
	c0.4,0,0.5-0.6,0.2-0.8c-1.4-0.9-2.1-2.2-2.6-3.3c2.3-2.4,3.6-5.6,3.6-9C60.5,24.9,53.1,18.5,44.2,18.5z M44.4,38.8h-8.6
	c-0.7,0-1.3-0.6-1.3-1.3s0.6-1.3,1.3-1.3h8.6c0.7,0,1.3,0.6,1.3,1.3S45.1,38.8,44.4,38.8z M52.5,34H35.8c-0.7,0-1.3-0.6-1.3-1.3
	s0.6-1.3,1.3-1.3h16.6c0.7,0,1.3,0.6,1.3,1.3S53.2,34,52.5,34z M52.5,29.3H35.8c-0.7,0-1.3-0.6-1.3-1.3s0.6-1.3,1.3-1.3h16.6
	c0.7,0,1.3,0.6,1.3,1.3S53.2,29.3,52.5,29.3z M44.2,49.9c0.6,0,1.3,0,1.9-0.1c-1.7,4.8-6.9,8.4-13,8.4c-2.7,0-5.2-0.7-7.4-1.9
	c-1.9,1.2-4,1.1-5.2,0.9c-0.3,0-0.4-0.5-0.1-0.7c1.2-0.8,1.8-1.8,2.1-2.8c-1.9-2.1-3-4.6-3-7.5c0-4.1,2.4-7.7,6-9.8
	C27.4,44.1,35,49.9,44.2,49.9z"/>
</svg>
