<?xml version="1.0" encoding="utf-8"?>
<!-- Generator: Adobe Illustrator 20.0.0, SVG Export Plug-In . SVG Version: 6.00 Build 0)  -->
<svg version="1.1" id="Layer_1" xmlns="http://www.w3.org/2000/svg" xmlns:xlink="http://www.w3.org/1999/xlink" x="0px" y="0px"
	 viewBox="0 0 80 80" style="enable-background:new 0 0 80 80;" xml:space="preserve">
<style type="text/css">
	.st0{fill:#FFFFFF;stroke:#FFFFFF;stroke-width:0.5;stroke-miterlimit:10;}
</style>
<title>Artboard 8</title>
<g>
	<path class="st0" d="M45.3,41.5V28.3c0-1.4,1.5-2.4,2.9-2.4h0.4V40c0,0,0,0.1,0,0.1C47.4,40.4,46.3,40.9,45.3,41.5z M51.8,40V23.2
		c0-1.4,1.2-2.5,2.6-2.5c0.2,0,0.5,0,0.7,0.1c0,0.2-0.1,0.4-0.1,0.6V40H51.8z M61.6,40h-3.3V21.4c0-1.2,0.7-2.5,2.2-2.5
		s2.2,1.3,2.2,2.5v3.1c-0.7,1-1.1,2.2-1.1,3.5V40z M4.8,77.3C4.8,77.4,4.8,77.4,4.8,77.3c0.2,0.2,0.3,0.3,0.5,0.3
		c0,0,0.1,0.1,0.1,0.1C5.5,77.9,5.7,78,5.9,78h0l0,0l0,0h0c0.2,0,0.3-0.1,0.5-0.2c0,0,0.1-0.1,0.1-0.1c0.1-0.1,0.3-0.2,0.4-0.3
		c0,0,0,0,0,0c5.8-4.5,6.5-10,6.5-14.8c0,0,0,0,0,0c0-0.1,0-0.1,0-0.2c0,0,0-0.1,0-0.1c0-0.1,0-0.1,0-0.2c0,0,0-0.1-0.1-0.1
		c0,0,0-0.1-0.1-0.1s0-0.1-0.1-0.1c0,0-0.1-0.1-0.1-0.1c0,0-0.1-0.1-0.1-0.1c0,0-0.1-0.1-0.1-0.1c0,0-0.1-0.1-0.1-0.1
		c0,0-0.1,0-0.1-0.1c-0.1,0-0.1-0.1-0.2-0.1c0,0,0,0,0,0c-3.7-1.3-6.1-4.9-6.1-8.9v-24c0-1.3,0.9-2.2,2.4-2.2h0.9v13
		c0,0.9,0.7,1.6,1.6,1.6s1.6-0.7,1.6-1.6V23c0-1.3,1.2-2.4,2.7-2.4c0.2,0,0.4,0,0.6,0.1c0,0.2,0,0.4,0,0.5V39c0,0.9,0.7,1.6,1.6,1.6
		c0.9,0,1.6-0.7,1.6-1.6V21.2c0-1.2,0.8-2.5,2.2-2.5c0.5,0,1.2,0.1,1.8,1.1c0.2,0.3,0.3,0.7,0.3,1.4v2.5c0,0.1,0,0.3,0.1,0.4
		c-0.7,1-1.1,2.2-1.1,3.6V39c0,0.9,0.7,1.6,1.6,1.6c0.9,0,1.6-0.7,1.6-1.6V27.7c0-1.2,0.8-2.5,2.2-2.5c0.5,0,1.2,0.1,1.8,1.1
		c0.2,0.3,0.3,0.7,0.3,1.4v7.6c-1.9,0.9-3.3,2.9-3.3,5.2v6.1c0,0.9,0.7,1.6,1.6,1.6s1.6-0.7,1.6-1.6v-6.1c0-1.4,1.2-2.5,2.6-2.5
		c1.4,0,2.6,1.2,2.6,2.5l0,12.9c0,3.3-2.2,5.6-4,7c-0.5,0.4-1.4,0.6-2.4,0.8l-0.1,0c-0.1,0-0.3,0.1-0.4,0.1c-0.9,0-1.5,0.8-1.5,1.6
		v1.1c0,0.7,0.2,1.3,0.2,2.1c0,6-0.6,13.1-5.9,19.5c-0.3,0.4-0.4,0.9-0.3,1.4c0.1,0.5,0.5,0.9,1,1.1L25,86
		c4.7-6.8,5.3-14.1,5.3-19.7c0-0.7-0.1-1.3-0.2-1.9c1.1-0.2,2.2-0.5,3.1-1.3c3.4-2.6,5.3-6,5.3-9.6l0-12.9c0-3-2.3-5.4-5.2-5.7v-7
		c0-0.8-0.1-2.1-0.8-3.2C31.4,22.8,29.9,22,28,22c-0.4,0-0.8,0-1.2,0.1v-0.9c0-0.8-0.1-2.1-0.8-3.2c-1.1-1.7-2.7-2.5-4.5-2.5
		c-1.8,0-3.3,0.8-4.3,2.2c-0.6-0.2-1.2-0.3-1.8-0.3c-3.1,0-5.7,2.4-5.9,5.4c0,0,0,0,0,0H8.6C5.4,22.7,3,25,3,28.2v24
		c0,5,2.8,9.4,7.2,11.5c-0.1,3.5-0.9,7.1-4.2,10.3 M61,86.9c0.4-0.2,0.8-0.6,0.9-1c0.1-0.5,0.1-0.9-0.2-1.3c-4.1-6.2-5-13-5-21.2
		c0-0.9-0.7-1.6-1.6-1.6c-0.1,0-0.2,0-0.3,0c-0.1,0-0.1,0-0.2,0c-5.1,0-9.3-4.2-9.3-9.4v-4.1c0-3,1.9-4.9,5-4.9h12.9
		c0.9,0,1.6-0.7,1.6-1.6V28c0-1.2,0.7-2.5,2.2-2.5s2.2,1.3,2.2,2.5v7.6c-1.9,1-3.3,2.9-3.3,5.1v5.9c0,0.9,0.7,1.6,1.6,1.6
		s1.6-0.7,1.6-1.6v-5.9c0-1.3,1.4-2.5,2.9-2.5c1.5,0,2.9,1.2,2.9,2.5l0,12.9c0,4.5-3.7,8.1-8.3,8.1c-4.5,0-8.4-3.8-8.4-8.3
		c0-0.9-0.7-1.6-1.6-1.6S55,52.4,55,53.3c0,6.3,5.3,11.6,11.6,11.6c1.3,0,2.5-0.2,3.7-0.6c0,3.5,0.4,7.3,3.8,10.8
		c0.1,0.2,0.2,0.4,0.4,0.5c0.3,0.2,0.6,0.4,0.9,0.4c0.1,0,0.1,0,0.2,0c0,0,0,0,0,0c0,0,0,0,0.1,0c0.4,0,0.9-0.2,1.2-0.5
		c0.1-0.1,0.2-0.2,0.3-0.4l-1.5-3.2c-2.2-2.8-2.1-5.8-2.1-9.3v0c2.8-2.1,4.6-5.4,4.6-9.1l0-12.9c0-3-2.6-5.5-5.7-5.7V28
		c0-3.3-2.3-5.8-5.4-5.8c-0.4,0-0.7,0-1.1,0.1v-1c0-3.3-2.3-5.8-5.4-5.8c-1.8,0-3.2,0.8-4.2,2.1c-0.6-0.2-1.2-0.3-1.9-0.3
		c-3.1,0-5.5,2.3-5.8,5.3c0,0,0,0,0,0h-0.4c-3.3,0-6.1,2.6-6.1,5.6v24c0,6.6,5,12,11.4,12.6c0.1,6.6,0.8,13.4,4.5,19.8"/>
	<path class="st0" d="M49.5,7.8l-5.7,5.2c-0.7,0.6-0.7,1.6-0.1,2.3c0.3,0.4,0.8,0.5,1.2,0.5c0.4,0,0.8-0.1,1.1-0.4l5.7-5.2
		c0.7-0.6,0.7-1.6,0.1-2.3C51.2,7.2,50.2,7.2,49.5,7.8z"/>
	<path class="st0" d="M39.5,2.1C39.5,2.1,39.5,2.1,39.5,2.1c-0.9,0-1.6,0.8-1.6,1.7l0,7.7c0,0.9,0.7,1.4,1.6,1.4c0,0,0,0,0,0
		c0.9,0,1.6-0.6,1.6-1.5l0-7.6C41.1,3,40.4,2.1,39.5,2.1z"/>
	<path class="st0" d="M29.4,7.7c-0.7-0.6-1.7-0.6-2.3,0.1c-0.6,0.7-0.6,1.7,0.1,2.3l5.6,5.2c0.3,0.3,0.7,0.4,1.1,0.4
		c0.4,0,0.9-0.2,1.2-0.5c0.6-0.7,0.6-1.7-0.1-2.3L29.4,7.7z"/>
</g>
</svg>
