<?xml version="1.0" encoding="utf-8"?>
<!-- Generator: Adobe Illustrator 20.0.0, SVG Export Plug-In . SVG Version: 6.00 Build 0)  -->
<svg version="1.1" id="Layer_1" xmlns="http://www.w3.org/2000/svg" xmlns:xlink="http://www.w3.org/1999/xlink" x="0px" y="0px"
	 viewBox="0 0 80 80" style="enable-background:new 0 0 80 80;" xml:space="preserve">
<style type="text/css">
	.st0{fill:#FFFFFF;}
</style>
<path class="st0" d="M30.7,80.3c1.7,0.3,2.3-0.7,2.3-1.6c0-0.8,0-3,0-5.8c-9.5,2.1-11.5-4.6-11.5-4.6c-1.6-3.9-3.8-5-3.8-5
	c-3.1-2.1,0.2-2.1,0.2-2.1c3.4,0.2,5.2,3.5,5.2,3.5c3,5.2,8,3.7,9.9,2.8c0.3-2.2,1.2-3.7,2.2-4.6C27.6,62,19.6,59.1,19.6,46
	c0-3.7,1.3-6.8,3.5-9.2c-0.4-0.9-1.5-4.3,0.3-9c0,0,2.9-0.9,9.4,3.5c2.7-0.8,5.7-1.1,8.6-1.2c2.9,0,5.8,0.4,8.6,1.2
	c6.5-4.4,9.4-3.5,9.4-3.5c1.9,4.7,0.7,8.2,0.3,9c2.2,2.4,3.5,5.4,3.5,9.2c0,13.1-8,16-15.6,16.9C48.9,64,50,66,50,69.2
	c0,4.6,0,8.3,0,9.4c0,0.9,0.6,2,2.4,1.6"/>
</svg>
