<?xml version="1.0" encoding="utf-8"?>
<!-- Generator: Adobe Illustrator 20.0.0, SVG Export Plug-In . SVG Version: 6.00 Build 0)  -->
<svg version="1.1" xmlns="http://www.w3.org/2000/svg" xmlns:xlink="http://www.w3.org/1999/xlink" x="0px" y="0px"
	 viewBox="0 0 80 80" style="enable-background:new 0 0 80 80;" xml:space="preserve">
<style type="text/css">
	.st0{fill:url(#SVGID_1_);}
	.st1{fill:url(#SVGID_2_);}
	.st2{fill:none;stroke:url(#SVGID_3_);stroke-width:3;stroke-linecap:round;stroke-miterlimit:10;}
	.st3{display:none;}
	.st4{display:inline;}
	.st5{fill:url(#SVGID_4_);}
	.st6{fill:url(#SVGID_5_);}
	.st7{display:inline;opacity:0.5;}
	.st8{fill:url(#SVGID_6_);}
	.st9{fill:url(#SVGID_7_);}
	.st10{fill:url(#SVGID_8_);}
	.st11{fill:url(#SVGID_9_);}
	.st12{display:inline;fill:#FFFFFF;}
	.st13{display:inline;fill:none;stroke:url(#SVGID_10_);stroke-width:2;stroke-linecap:round;stroke-miterlimit:10;}
	.st14{display:inline;fill:url(#SVGID_11_);}
</style>
<g id="Layer_1">
	<linearGradient id="SVGID_1_" gradientUnits="userSpaceOnUse" x1="32.6559" y1="21.6882" x2="38.3441" y2="21.6882">
		<stop  offset="0" style="stop-color:#D7757F"/>
		<stop  offset="1" style="stop-color:#FE56AE"/>
	</linearGradient>
	<circle class="st0" cx="35.5" cy="21.7" r="2.8"/>
	<linearGradient id="SVGID_2_" gradientUnits="userSpaceOnUse" x1="58.6559" y1="21.6882" x2="64.3441" y2="21.6882">
		<stop  offset="0" style="stop-color:#D7757F"/>
		<stop  offset="1" style="stop-color:#FE56AE"/>
	</linearGradient>
	<circle class="st1" cx="61.5" cy="21.7" r="2.8"/>
	
		<linearGradient id="SVGID_3_" gradientUnits="userSpaceOnUse" x1="37.3333" y1="37.5131" x2="59.8333" y2="37.5131" gradientTransform="matrix(0.9975 7.056835e-02 -7.056835e-02 0.9975 2.7684 -3.3349)">
		<stop  offset="0" style="stop-color:#D7757F"/>
		<stop  offset="1" style="stop-color:#FE56AE"/>
	</linearGradient>
	<path class="st2" d="M38.9,36.6c0,0,10.1,6.1,19.6-0.1"/>
</g>
<g id="Layer_2" class="st3">
	<g class="st4">
		<linearGradient id="SVGID_4_" gradientUnits="userSpaceOnUse" x1="-58.6223" y1="41.2931" x2="-22.7059" y2="5.3768">
			<stop  offset="0" style="stop-color:#D7757F"/>
			<stop  offset="1" style="stop-color:#FE56AE"/>
		</linearGradient>
		<rect x="-41.1" y="13.1" class="st5" width="10.8" height="10.7"/>
		<linearGradient id="SVGID_5_" gradientUnits="userSpaceOnUse" x1="-45.2758" y1="54.6396" x2="-9.3594" y2="18.7232">
			<stop  offset="0" style="stop-color:#D7757F"/>
			<stop  offset="1" style="stop-color:#FE56AE"/>
		</linearGradient>
		<polygon class="st6" points="-26.6,25.7 -44.9,25.7 -44.9,46.4 -42.5,46.4 -42.5,66.9 -39.5,66.9 -39.5,46.4 -32.2,46.4 
			-32.2,66.9 -29,66.9 -29,46.4 -26.6,46.4 		"/>
	</g>
	<g class="st7">
		<linearGradient id="SVGID_6_" gradientUnits="userSpaceOnUse" x1="-51.7125" y1="49.7042" x2="-12.0786" y2="10.0703">
			<stop  offset="0" style="stop-color:#D7757F"/>
			<stop  offset="1" style="stop-color:#FE56AE"/>
		</linearGradient>
		<rect x="-26.6" y="15.8" class="st8" width="8.9" height="8.8"/>
		<linearGradient id="SVGID_7_" gradientUnits="userSpaceOnUse" x1="-40.7077" y1="60.709" x2="-1.0738" y2="21.075">
			<stop  offset="0" style="stop-color:#D7757F"/>
			<stop  offset="1" style="stop-color:#FE56AE"/>
		</linearGradient>
		<polygon class="st9" points="-14.7,26.2 -29.7,26.2 -29.7,43.2 -27.8,43.2 -27.8,60.2 -25.3,60.2 -25.3,43.2 -19.2,43.2 
			-19.2,60.2 -16.6,60.2 -16.6,43.2 -14.7,43.2 		"/>
	</g>
	<g class="st7">
		<linearGradient id="SVGID_8_" gradientUnits="userSpaceOnUse" x1="-66.2644" y1="37.1522" x2="-26.6305" y2="-2.4817">
			<stop  offset="0" style="stop-color:#D7757F"/>
			<stop  offset="1" style="stop-color:#FE56AE"/>
		</linearGradient>
		<rect x="-53.8" y="15.8" class="st10" width="8.9" height="8.8"/>
		<linearGradient id="SVGID_9_" gradientUnits="userSpaceOnUse" x1="-55.2597" y1="48.157" x2="-15.6257" y2="8.5231">
			<stop  offset="0" style="stop-color:#D7757F"/>
			<stop  offset="1" style="stop-color:#FE56AE"/>
		</linearGradient>
		<polygon class="st11" points="-41.8,26.2 -56.8,26.2 -56.8,43.2 -54.9,43.2 -54.9,60.2 -52.4,60.2 -52.4,43.2 -46.3,43.2 
			-46.3,60.2 -43.7,60.2 -43.7,43.2 -41.8,43.2 		"/>
	</g>
	<polygon class="st12" points="-58.2,19.5 -9.1,50.6 -13.8,52 -54.2,24 	"/>
	<linearGradient id="SVGID_10_" gradientUnits="userSpaceOnUse" x1="-38.8904" y1="40.2738" x2="-28.4429" y2="29.8262">
		<stop  offset="0" style="stop-color:#D7757F"/>
		<stop  offset="1" style="stop-color:#FE56AE"/>
	</linearGradient>
	<line class="st13" x1="-58.2" y1="19.5" x2="-9.1" y2="50.6"/>
	<linearGradient id="SVGID_11_" gradientUnits="userSpaceOnUse" x1="104.6467" y1="40" x2="151.8533" y2="40">
		<stop  offset="0" style="stop-color:#D7757F"/>
		<stop  offset="1" style="stop-color:#FE56AE"/>
	</linearGradient>
	<path class="st14" d="M104.6,40c10.5,18.2,36.7,18.2,47.2,0C141.4,21.8,115.1,21.8,104.6,40z M131,31.8c1.5,0,2.7,1.2,2.7,2.7
		s-1.2,2.7-2.7,2.7c-1.5,0-2.7-1.2-2.7-2.7S129.5,31.8,131,31.8z M107.9,40c3-4.5,6.6-7.4,11.7-9.3c-4.5,5.9-1.9,14.5,5.2,16.9
		c7.1,2.4,14.4-2.9,14.4-10.3c0-2.6-0.7-4.6-2.2-6.6c5.1,1.9,8.7,4.8,11.7,9.3C138.9,54.5,117.6,54.5,107.9,40z"/>
</g>
</svg>
