<?xml version="1.0" encoding="utf-8"?>
<!-- Generator: Adobe Illustrator 20.0.0, SVG Export Plug-In . SVG Version: 6.00 Build 0)  -->
<svg version="1.1" id="Layer_1" xmlns="http://www.w3.org/2000/svg" xmlns:xlink="http://www.w3.org/1999/xlink" x="0px" y="0px"
	 viewBox="0 0 80 80" style="enable-background:new 0 0 80 80;" xml:space="preserve">
<style type="text/css">
	.st0{fill:#FFFFFF;stroke:#FFFFFF;stroke-width:0.5;stroke-miterlimit:10;}
</style>
<title>Artboard 8</title>
<path class="st0" d="M56,76.5c-1.6-1.3-3.6-2-5.5-1.9c0.6-4.3-1-8.7-4.4-11.5c-3.1-2.6-7.3-3.4-11-2.1c-0.2,0.1-0.4,0.1-0.5,0.2
	L42,48c1.3,0.6,2.5,0.9,3.9,1l2.4,8.3c0.2,0.5,0.5,0.8,1,0.9c0.1,0,0.2,0,0.3,0c0.4,0,0.8-0.2,1-0.6l5.8-7.5
	c2.5-3.2,2.8-6.9,0.8-9.6l0.8-1c9.1-11.7,6.5-25.9,6.4-26.5c-0.1-0.6-0.7-1.1-1.4-1.1c-0.6,0.1-15,1.5-24.8,13.3
	c-3-1.5-6.4-0.5-9,2.9l-5.7,7.5C23.1,36,23,36.5,23.2,37c0.2,0.5,0.6,0.7,1.2,0.8l8.6,0.4c0.4,1.6,1.3,3.1,2.4,4.6L18.8,56.4
	c-5.7-3.9-13.6-2.8-18,2.8c-1.6,2.1-2.6,4.7-2.9,7.3c-4.2-0.6-8.4,1.1-11.1,4.6c-1.3,1.6-1.9,3.7-2.2,4.8c-0.5,2.1-0.7,6.8,0.6,8.3
	c0.3,0.3,0.6,0.5,1,0.5h71.5c0.4,0,0.7-0.2,1-0.4c0.3-0.3,0.4-0.6,0.4-1C59,82.1,58,78.2,56,76.5z M35.3,36.8
	c-0.1-0.6-0.6-1.1-1.3-1.1l-7-0.3l4.1-5.4c1-1.2,3.5-3.9,6.5-1.7c0.5,0.4,1.3,0.3,1.8-0.3c7.6-9.7,18.8-12.4,22.5-13
	c0.4,3.6,0.8,14.2-6.1,23l-1.4,1.9c-0.4,0.6-0.4,1.3,0.1,1.7c2.1,2.2,1.3,5-0.3,7.1L50,54.2l-2-6.8c-0.2-0.6-0.7-1-1.3-1l0,0
	c-1.1,0-2.3-0.3-3.5-0.7c-0.8-0.4-1.6-0.7-2.3-1.3c-0.5-0.4-1.1-0.8-1.6-1.3c-0.7-0.6-1.3-1.3-1.9-1.9
	C36.3,39.8,35.5,38.3,35.3,36.8z M-12.9,82c-0.3-1.1-0.4-3.6,0.1-5.4c0.4-1.5,1-2.8,1.7-3.8c2.4-3,6.3-4.4,9.9-3.3
	c0.4,0.1,0.8,0,1.2-0.3c0.4-0.3,0.5-0.6,0.5-1.1c-0.1-2.6,0.7-5.1,2.3-7.2c3.7-4.8,10.5-5.5,15.1-1.7c0.4,0.4,1.2,0.4,1.6,0
	l17.5-14.4c0.7,0.7,1.5,1.3,2.4,1.9L29.2,65.1c-0.4,0.6-0.2,1.4,0.4,1.8c0.5,0.4,1.3,0.3,1.8-0.3c1.2-1.5,2.7-2.6,4.5-3.1
	c3-0.9,6.1-0.3,8.6,1.7c3,2.5,4.3,6.8,3,10.6c-0.2,0.5,0,1,0.3,1.4c0.4,0.4,0.9,0.5,1.3,0.4c1.7-0.6,3.7-0.2,5.2,1.1
	c0.8,0.6,1.4,2.2,1.8,3.4L-12.9,82L-12.9,82z M48.8,31c0.1,0.1,0.2,0.2,0.4,0.3c0.1,0.1,0.2,0.1,0.3,0.2c-0.1-0.1-0.2-0.1-0.3-0.2
	C49.1,31.3,48.9,31.1,48.8,31z M48.8,31c0.1,0.1,0.2,0.2,0.4,0.3c0.1,0.1,0.2,0.1,0.3,0.2c-0.1-0.1-0.2-0.1-0.3-0.2
	C49.1,31.3,48.9,31.1,48.8,31z M48.8,31c0.1,0.1,0.2,0.2,0.4,0.3c0.1,0.1,0.2,0.1,0.3,0.2c-0.1-0.1-0.2-0.1-0.3-0.2
	C49.1,31.3,48.9,31.1,48.8,31z M55.5,23.1c-1.3-1.1-3-1.6-4.7-1.4c-1.7,0.2-3.2,1.1-4.3,2.5c-2.2,2.8-1.8,7,1,9.3
	c1.2,1,2.6,1.5,4,1.5c1,0,1.9-0.2,2.8-0.6c0.9-0.5,1.6-1,2.3-1.8C58.7,29.5,58.3,25.4,55.5,23.1z M54.5,30.7
	c-0.1,0.1-0.2,0.3-0.3,0.4c-0.2,0.2-0.4,0.4-0.7,0.6s-0.4,0.3-0.8,0.4c-0.1,0-0.2,0.1-0.3,0.1c-0.1,0-0.2,0-0.3,0.1
	c-0.1,0-0.2,0-0.2,0c-0.1,0-0.2,0-0.3,0c-0.4,0-1,0-1.4-0.2c-0.1,0-0.3-0.1-0.4-0.2c-0.1,0-0.2-0.1-0.3-0.2
	c-0.1-0.1-0.2-0.1-0.3-0.2c-0.1-0.1-0.2-0.1-0.3-0.2c-0.1-0.1-0.3-0.2-0.4-0.3s-0.2-0.2-0.3-0.3c-0.1-0.1-0.2-0.2-0.2-0.3
	c0-0.1-0.1-0.1-0.1-0.2s-0.1-0.1-0.1-0.2c0-0.1-0.1-0.2-0.1-0.3c0,0,0,0,0-0.1c0-0.1-0.1-0.2-0.1-0.3v-0.1c0-0.1-0.1-0.2-0.1-0.3
	s0-0.2-0.1-0.4c0-0.2,0-0.3,0-0.5c0-0.8,0.3-1.7,0.8-2.4c0.6-0.8,1.5-1.4,2.5-1.5c0.2,0,0.3,0,0.4,0c0.2,0,0.4,0,0.6,0.1
	c0.2,0,0.4,0.1,0.6,0.2c0.4,0.2,0.8,0.4,1.1,0.6c1,0.7,1.4,1.9,1.4,3C55.3,29.2,55.1,30,54.5,30.7z M43.4,77.2l-2.4,1
	c-0.7-1.9-2.2-3.3-4.2-3.8c-1.6-0.4-3.2-0.1-4.6,0.8c-0.5,0.4-1.3,0.2-1.8-0.4c-1.9-2.6-4.7-4.4-7.7-5.1c-6.5-1.6-13.3,2-15.9,8.4
	l-2.4-1c3-7.7,11-12,18.9-10.1c3.3,0.8,6.3,2.7,8.5,5.2c1.7-0.8,3.7-1,5.6-0.6C40.1,72.6,42.4,74.6,43.4,77.2z"/>
</svg>
