<?xml version="1.0" encoding="utf-8"?>
<!-- Generator: Adobe Illustrator 20.0.0, SVG Export Plug-In . SVG Version: 6.00 Build 0)  -->
<svg version="1.1" id="Layer_1" xmlns="http://www.w3.org/2000/svg" xmlns:xlink="http://www.w3.org/1999/xlink" x="0px" y="0px"
	 viewBox="0 0 80 80" style="enable-background:new 0 0 80 80;" xml:space="preserve">
<style type="text/css">
	.st0{fill:#FFFFFF;}
</style>
<title>Artboard 8</title>
<g>
	<g>
		<path class="st0" d="M49.6,25.5c3.4,0,5.6,1.8,6.9,3.3c1.8,2,2.8,4.8,2.8,7.4c0,1.4-0.9,5.6-9,13.3c-4.1,3.9-8.4,7-10.4,8.5
			c-2-1.4-6.3-4.6-10.4-8.5c-8.1-7.6-9-11.8-9-13.3c0-2.6,1.1-5.4,2.8-7.4c1.3-1.5,3.6-3.3,6.9-3.3c2.7,0,4.9,1,6.6,3l3.1,3.7
			l3.1-3.7C44.7,26.5,47,25.5,49.6,25.5 M49.6,21.5c-4.8,0-7.9,2.3-9.6,4.5c-1.8-2.1-4.8-4.5-9.6-4.5c-8.2,0-13.7,7.6-13.7,14.7
			c0,10.3,19.9,24.2,22.1,25.8c0.4,0.3,0.8,0.4,1.2,0.4s0.9-0.1,1.2-0.4c2.3-1.5,22.1-15.4,22.1-25.8C63.4,29.1,57.9,21.5,49.6,21.5
			L49.6,21.5z"/>
	</g>
</g>
<g>
	<g>
		<path class="st0" d="M47.4,4.9c-1.1,0-1.8,0.5-2.2,1c-0.4-0.5-1.1-1-2.2-1c-1.9,0-3.2,1.8-3.2,3.4c0,2.4,4.6,5.6,5.1,5.9
			c0.1,0.1,0.2,0.1,0.3,0.1c0.1,0,0.2,0,0.3-0.1c0.5-0.4,5.1-3.6,5.1-5.9C50.6,6.7,49.3,4.9,47.4,4.9L47.4,4.9z"/>
	</g>
</g>
<g>
	<g>
		<path class="st0" d="M30.4,11.7c-0.6,0-1,0.3-1.2,0.6c-0.2-0.3-0.6-0.6-1.2-0.6c-1.1,0-1.8,1-1.8,1.9c0,1.3,2.6,3.1,2.9,3.3
			c0,0,0.1,0,0.2,0s0.1,0,0.2,0c0.3-0.2,2.9-2,2.9-3.3C32.2,12.7,31.4,11.7,30.4,11.7L30.4,11.7z"/>
	</g>
</g>
<g>
	<g>
		<path class="st0" d="M38.7,15.1c-0.4,0-0.7,0.2-0.9,0.4c-0.2-0.2-0.4-0.4-0.9-0.4c-0.8,0-1.3,0.7-1.3,1.3c0,0.9,1.8,2.2,2,2.4
			c0,0,0.1,0,0.1,0s0.1,0,0.1,0c0.2-0.1,2-1.4,2-2.4C40,15.8,39.5,15.1,38.7,15.1L38.7,15.1z"/>
	</g>
</g>
</svg>
