<?xml version="1.0" encoding="utf-8"?>
<!-- Generator: Adobe Illustrator 20.0.0, SVG Export Plug-In . SVG Version: 6.00 Build 0)  -->
<svg version="1.1" id="Layer_1" xmlns="http://www.w3.org/2000/svg" xmlns:xlink="http://www.w3.org/1999/xlink" x="0px" y="0px"
	 viewBox="0 0 80 80" style="enable-background:new 0 0 80 80;" xml:space="preserve">
<style type="text/css">
	.st0{opacity:0.2;}
	.st1{fill:#FFFFFF;}
	.st2{fill:#F6AB2F;}
</style>
<g class="st0">
	<path class="st1" d="M54.1,69.5c-1.3,0-2.5-0.3-3.7-0.9L40,63.1l-10.5,5.5c-1.1,0.6-2.4,0.9-3.6,0.9c-2.9,0-5.6-1.6-6.9-4.2
		c-0.8-1.5-1.1-3.2-0.8-4.9l2-11.7l-8.5-8.3c-3.1-3-3.1-8-0.1-11.1c1.2-1.2,2.8-2,4.4-2.2l11.7-1.7L33,14.8c1.3-2.7,4-4.3,7-4.3
		c1.2,0,2.4,0.3,3.5,0.8c1.5,0.8,2.7,2,3.5,3.5l5.2,10.6l11.7,1.7c2.1,0.3,3.9,1.4,5.1,3.1c1.2,1.7,1.8,3.7,1.5,5.8
		c-0.2,1.7-1,3.2-2.2,4.4l-8.5,8.3l2,11.7c0.7,4.2-2.1,8.3-6.3,9C55,69.5,54.5,69.5,54.1,69.5z"/>
	<path class="st1" d="M40,15.5c0.4,0,0.9,0.1,1.3,0.3c0.5,0.3,1,0.7,1.3,1.3l6.4,13l14.3,2.1c1.5,0.2,2.6,1.6,2.4,3.2
		c-0.1,0.6-0.4,1.2-0.8,1.6L54.4,47l2.4,14.2c0.3,1.5-0.8,3-2.3,3.2c-0.2,0-0.3,0-0.5,0c-0.5,0-0.9-0.1-1.3-0.3L40,57.5l-12.8,6.7
		c-0.4,0.2-0.9,0.3-1.3,0.3c-1,0-2-0.6-2.5-1.5c-0.3-0.5-0.4-1.2-0.3-1.8L25.6,47L15.2,36.9c-1.1-1.1-1.1-2.9,0-4
		c0.4-0.4,1-0.7,1.6-0.8L31.1,30l6.4-13C38,16.1,39,15.5,40,15.5 M40,5.5L40,5.5c-4.9,0-9.3,2.7-11.5,7.1l0,0l0,0l-4.1,8.3l-9.1,1.3
		c-2.8,0.4-5.3,1.7-7.3,3.7c-2.4,2.4-3.7,5.7-3.7,9.1c0,3.4,1.4,6.6,3.8,9l0,0l0,0l6.6,6.4l-1.6,9.1c-0.5,2.8,0,5.6,1.3,8.1
		c2.2,4.2,6.6,6.9,11.4,6.9c2.1,0,4.1-0.5,5.9-1.5l8.2-4.3l8.1,4.3c1.8,1,3.9,1.5,6,1.5c0.7,0,1.5-0.1,2.2-0.2
		c6.9-1.2,11.6-7.8,10.4-14.8l-1.5-9.1l6.6-6.4l0,0l0,0c2-1.9,3.3-4.5,3.7-7.3c1-7-3.8-13.5-10.8-14.5l-9.1-1.3l-4.1-8.3l0,0l0,0
		c-1.2-2.5-3.3-4.5-5.7-5.7C44,6,42,5.5,40,5.5L40,5.5z"/>
</g>
<g>
	<path class="st2" d="M23.1,61.2L25.6,47L15.2,36.9c-1.1-1.1-1.1-2.9,0-4c0.4-0.4,1-0.7,1.6-0.8L31.1,30l6.4-13
		c0.7-1.4,2.4-2,3.8-1.3c0.5,0.3,1,0.7,1.3,1.3l6.4,13l14.3,2.1c1.5,0.2,2.6,1.6,2.4,3.2c-0.1,0.6-0.4,1.2-0.8,1.6L54.4,47l2.4,14.2
		c0.3,1.5-0.8,3-2.3,3.2c-0.6,0.1-1.3,0-1.8-0.3L40,57.5l-12.8,6.7c-1.4,0.7-3.1,0.2-3.8-1.2C23.1,62.4,23,61.8,23.1,61.2z"/>
</g>
</svg>
