<?xml version="1.0" encoding="utf-8"?>
<!-- Generator: Adobe Illustrator 20.0.0, SVG Export Plug-In . SVG Version: 6.00 Build 0)  -->
<svg version="1.1" id="Layer_1" xmlns="http://www.w3.org/2000/svg" xmlns:xlink="http://www.w3.org/1999/xlink" x="0px" y="0px"
	 viewBox="0 0 80 80" style="enable-background:new 0 0 80 80;" xml:space="preserve">
<style type="text/css">
	.st0{opacity:0.2;}
	.st1{fill:#FFFFFF;}
	.st2{fill:none;stroke:#FFFFFF;stroke-width:3;stroke-linecap:square;stroke-miterlimit:10;}
</style>
<g class="st0">
	<path class="st1" d="M48.4,57.1c-0.7,0-1.4-0.2-2-0.5L40,53.2l-6.5,3.4c-0.6,0.3-1.3,0.5-1.9,0.5c-1.6,0-3-0.9-3.7-2.2
		c-0.4-0.8-0.6-1.7-0.4-2.6l1.2-7.2l-5.2-5.1c-0.8-0.8-1.2-1.8-1.3-3c0-1.1,0.4-2.2,1.2-3c0.6-0.6,1.5-1.1,2.4-1.2l7.2-1.1l3.2-6.6
		c0.7-1.4,2.2-2.3,3.7-2.3c0.6,0,1.3,0.2,1.9,0.4c0.8,0.4,1.5,1.1,1.9,1.9l3.2,6.6l7.2,1.1c1.1,0.2,2.1,0.7,2.7,1.6
		c0.7,0.9,0.9,2,0.8,3.1c-0.1,0.9-0.6,1.7-1.2,2.4L51.3,45l1.2,7.2c0.2,1.1-0.1,2.2-0.7,3.1c-0.6,0.9-1.6,1.5-2.7,1.7
		C48.9,57.1,48.6,57.1,48.4,57.1z"/>
	<path class="st1" d="M40,25.4c0.3,0,0.5,0.1,0.8,0.2c0.3,0.2,0.6,0.4,0.7,0.7l3.8,7.7l8.5,1.2c0.9,0.1,1.5,1,1.4,1.9
		c-0.1,0.4-0.2,0.7-0.5,1l-6.2,6l1.4,8.5c0.2,0.9-0.4,1.8-1.4,1.9c-0.1,0-0.2,0-0.3,0c-0.3,0-0.5-0.1-0.8-0.2l-7.6-4l-7.6,4
		c-0.2,0.1-0.5,0.2-0.8,0.2c-0.6,0-1.2-0.3-1.5-0.9c-0.2-0.3-0.2-0.7-0.2-1.1l1.5-8.5l-6.2-6c-0.7-0.6-0.7-1.7,0-2.4
		c0.3-0.3,0.6-0.4,1-0.5l8.5-1.2l3.8-7.7C38.8,25.7,39.4,25.4,40,25.4 M40,20.4L40,20.4c-2.5,0-4.8,1.4-6,3.7l-2.7,5.4l-5.9,0.9
		c-1.4,0.2-2.8,0.9-3.8,1.9c-1.3,1.3-1.9,3-1.9,4.7c0,1.8,0.7,3.5,2,4.7l4.3,4.2l-1,5.9c-0.2,1.4,0,2.9,0.7,4.2
		c1.2,2.2,3.4,3.6,5.9,3.6c1.1,0,2.1-0.3,3.1-0.8l5.3-2.8l5.3,2.8c0.9,0.5,2,0.8,3.1,0.8c0.4,0,0.8,0,1.2-0.1
		c1.8-0.3,3.3-1.3,4.3-2.7c1-1.5,1.4-3.2,1.1-5l-1-5.9l4.3-4.2c1-1,1.7-2.4,1.9-3.8c0.5-3.6-2-7-5.6-7.6l-5.9-0.9L46,24.1
		c-0.7-1.3-1.7-2.4-3-3C42.1,20.6,41,20.4,40,20.4L40,20.4z"/>
</g>
<g>
	<path class="st1" d="M29.9,52.7l1.5-8.5l-6.2-6c-0.7-0.6-0.7-1.7,0-2.4c0.3-0.3,0.6-0.4,1-0.5l8.5-1.2l3.8-7.7
		c0.4-0.8,1.4-1.2,2.3-0.7c0.3,0.2,0.6,0.4,0.7,0.7l3.8,7.7l8.5,1.2c0.9,0.1,1.5,1,1.4,1.9c-0.1,0.4-0.2,0.7-0.5,1l-6.2,6l1.4,8.5
		c0.2,0.9-0.4,1.8-1.4,1.9c-0.4,0.1-0.7,0-1.1-0.2l-7.6-4l-7.6,4c-0.8,0.4-1.8,0.1-2.3-0.7C29.9,53.4,29.9,53,29.9,52.7z"/>
</g>
<line class="st2" x1="54.6" y1="16.2" x2="54.6" y2="26.5"/>
<line class="st2" x1="49.5" y1="21.3" x2="59.8" y2="21.3"/>
</svg>
