<?xml version="1.0" encoding="utf-8"?>
<!-- Generator: Adobe Illustrator 20.0.0, SVG Export Plug-In . SVG Version: 6.00 Build 0)  -->
<svg version="1.1" id="Layer_1" xmlns="http://www.w3.org/2000/svg" xmlns:xlink="http://www.w3.org/1999/xlink" x="0px" y="0px"
	 viewBox="0 0 80 80" style="enable-background:new 0 0 80 80;" xml:space="preserve">
<style type="text/css">
	.st0{fill:none;stroke:#FFFFFF;stroke-miterlimit:10;}
	.st1{opacity:0.5;}
	.st2{fill:#FFFFFF;stroke:#FFFFFF;stroke-width:1.5;stroke-linejoin:round;stroke-miterlimit:10;}
	.st3{fill:#FFFFFF;}
</style>
<g>
	<rect x="35.3" y="16.8" class="st0" width="0.7" height="8.9"/>
	<rect x="31.2" y="20.9" class="st0" width="8.9" height="0.7"/>
</g>
<g>
	<rect x="46.9" y="11.8" class="st0" width="0.5" height="5.8"/>
	<rect x="44.2" y="14.4" class="st0" width="5.8" height="0.5"/>
</g>
<g>
	<rect x="31.7" y="7" class="st0" width="0.3" height="3.8"/>
	<rect x="29.9" y="8.8" class="st0" width="3.8" height="0.3"/>
</g>
<g>
	<rect x="53.1" y="23.8" class="st0" width="0.3" height="3.8"/>
	<rect x="51.3" y="25.6" class="st0" width="3.8" height="0.3"/>
</g>
<g class="st1">
	<g>
		<g class="st1">
			<rect x="25.6" y="12.7" transform="matrix(0.866 -0.5 0.5 0.866 -4.6375 15.3824)" class="st2" width="1.6" height="7.3"/>
			<rect x="39.1" y="9.6" class="st2" width="1.6" height="7.3"/>
			<rect x="39.1" y="63.1" class="st2" width="1.6" height="7.3"/>
			<rect x="63.4" y="39" class="st2" width="7.3" height="1.6"/>
			<rect x="9.3" y="38.8" class="st2" width="7.3" height="1.6"/>
			<rect x="52.8" y="59.4" transform="matrix(0.866 -0.5 0.5 0.866 -24.3484 35.2481)" class="st2" width="1.6" height="7.3"/>
			<rect x="50" y="15.6" transform="matrix(0.5 -0.866 0.866 0.5 12.6581 54.6457)" class="st2" width="7.3" height="1.6"/>
			<rect x="22.8" y="62.3" transform="matrix(0.5 -0.866 0.866 0.5 -41.4509 54.4187)" class="st2" width="7.3" height="1.6"/>
			<rect x="62.7" y="49.5" transform="matrix(0.5 -0.866 0.866 0.5 -14.2374 81.5487)" class="st2" width="1.6" height="7.3"/>
			<rect x="15.8" y="22.7" transform="matrix(0.5 -0.866 0.866 0.5 -14.5553 27.5157)" class="st2" width="1.6" height="7.3"/>
			<rect x="59.8" y="25.5" transform="matrix(0.866 -0.5 0.5 0.866 -4.6535 35.2477)" class="st2" width="7.3" height="1.6"/>
			<rect x="12.9" y="52.3" transform="matrix(0.866 -0.5 0.5 0.866 -24.3324 15.3828)" class="st2" width="7.3" height="1.6"/>
		</g>
	</g>
</g>
<g>
	<polygon class="st3" points="28.9,30.6 33.7,32.6 46.3,32.6 51.1,30.6 46.3,28.8 33.6,28.8 	"/>
	<polygon class="st3" points="27.7,31.3 32.9,33.4 31.7,38 24.8,34.9 	"/>
	<polygon class="st3" points="34.1,33.7 32.9,38.2 40,38.2 47.1,38.2 46,33.7 	"/>
	<polygon class="st3" points="47.1,33.4 48.3,38 55.2,34.8 52.4,31.3 	"/>
	<polygon class="st3" points="48.3,39.2 54.9,36.3 41.7,52.4 	"/>
	<polygon class="st3" points="32.9,39.4 47,39.4 40,53.2 	"/>
	<polygon class="st3" points="31.7,39.2 38.4,52.4 25.2,36.2 	"/>
</g>
</svg>
