<?xml version="1.0" encoding="utf-8"?>
<!-- Generator: Adobe Illustrator 20.0.0, SVG Export Plug-In . SVG Version: 6.00 Build 0)  -->
<svg version="1.1" id="Layer_1" xmlns="http://www.w3.org/2000/svg" xmlns:xlink="http://www.w3.org/1999/xlink" x="0px" y="0px"
	 viewBox="0 0 80 80" style="enable-background:new 0 0 80 80;" xml:space="preserve">
<style type="text/css">
	.st0{fill:none;stroke:#FFFFFF;stroke-width:3;stroke-miterlimit:10;}
	.st1{fill:#FFFFFF;stroke:#FFFFFF;stroke-miterlimit:10;}
</style>
<polygon class="st0" points="40.5,20.7 47.2,33.5 61.4,35.9 51.4,46.2 53.4,60.5 40.5,54.1 27.6,60.5 29.6,46.2 19.6,35.9 
	33.8,33.5 "/>
<g>
	<rect x="25.3" y="18.9" class="st1" width="0.7" height="8.9"/>
	
		<rect x="25.3" y="18.9" transform="matrix(6.123234e-17 -1 1 6.123234e-17 2.3097 48.9764)" class="st1" width="0.7" height="8.9"/>
</g>
<g>
	<rect x="34.6" y="9.7" class="st1" width="0.5" height="5.8"/>
	<rect x="34.6" y="9.7" transform="matrix(6.123234e-17 -1 1 6.123234e-17 22.2647 47.402)" class="st1" width="0.5" height="5.8"/>
</g>
<g>
	<rect x="56" y="22" class="st1" width="0.5" height="5.8"/>
	<rect x="56" y="22" transform="matrix(6.123234e-17 -1 1 6.123234e-17 31.3883 81.145)" class="st1" width="0.5" height="5.8"/>
</g>
<g>
	<rect x="48.1" y="14" class="st1" width="0.3" height="3.8"/>
	<rect x="48.1" y="14" transform="matrix(6.123234e-17 -1 1 6.123234e-17 32.3183 64.2417)" class="st1" width="0.3" height="3.8"/>
</g>
</svg>
