<?xml version="1.0" encoding="utf-8"?>
<!-- Generator: Adobe Illustrator 20.0.0, SVG Export Plug-In . SVG Version: 6.00 Build 0)  -->
<svg version="1.1" id="Layer_1" xmlns:ev="http://www.w3.org/2001/xml-events"
	 xmlns="http://www.w3.org/2000/svg" xmlns:xlink="http://www.w3.org/1999/xlink" x="0px" y="0px" viewBox="0 0 580 580"
	 style="enable-background:new 0 0 580 580;" xml:space="preserve">
<style type="text/css">
	.st0{fill:#FFFFFF;}
</style>
<desc></desc>
<g>
	<polygon class="st0" points="60,260 40,260 40,280 40,300 60,300 60,280 	"/>
	<path class="st0" d="M80,180h20h20h20h20h20v-20v-20v-20v-20V80V60V40h-20h-20h-20h-20H80H60H40v20v20v20v20v20v20v20h20H80z
		 M60,140v-20v-20V80V60h20h20h20h20h20v20v20v20v20v20h-20h-20h-20H80H60V140z"/>
	<polygon class="st0" points="80,240 80,220 100,220 120,220 140,220 140,200 120,200 100,200 80,200 60,200 40,200 40,220 40,240 
		60,240 	"/>
	<polygon class="st0" points="120,140 140,140 140,120 140,100 140,80 120,80 100,80 80,80 80,100 80,120 80,140 100,140 	"/>
	<polygon class="st0" points="100,360 80,360 80,340 80,320 100,320 100,300 80,300 60,300 60,320 60,340 60,360 60,380 80,380 
		100,380 120,380 140,380 140,360 120,360 120,340 100,340 	"/>
	<polygon class="st0" points="100,440 80,440 80,460 80,480 80,500 100,500 120,500 140,500 140,480 140,460 140,440 120,440 	"/>
	<path class="st0" d="M140,400h-20h-20H80H60H40v20v20v20v20v20v20v20h20h20h20h20h20h20h20v-20v-20v-20v-20v-20v-20v-20h-20H140z
		 M160,440v20v20v20v20h-20h-20h-20H80H60v-20v-20v-20v-20v-20h20h20h20h20h20V440z"/>
	<rect x="160" y="240" class="st0" width="20" height="20"/>
	<rect x="160" y="360" class="st0" width="20" height="20"/>
	<polygon class="st0" points="200,300 180,300 180,320 160,320 160,300 180,300 180,280 160,280 160,260 140,260 120,260 120,240 
		100,240 100,260 80,260 80,280 100,280 100,300 120,300 140,300 140,320 120,320 120,340 140,340 160,340 180,340 200,340 200,320 
			"/>
	<rect x="200" y="60" class="st0" width="20" height="20"/>
	<polygon class="st0" points="220,380 200,380 200,400 200,420 220,420 240,420 240,400 220,400 	"/>
	<polygon class="st0" points="240,160 240,140 240,120 260,120 260,100 240,100 220,100 200,100 200,120 220,120 220,140 200,140 
		200,160 200,180 220,180 220,160 	"/>
	<polygon class="st0" points="240,300 260,300 260,280 240,280 220,280 200,280 200,300 220,300 	"/>
	<polygon class="st0" points="260,60 260,40 240,40 240,60 240,80 260,80 	"/>
	<polygon class="st0" points="240,240 240,260 260,260 260,240 260,220 240,220 	"/>
	<rect x="240" y="380" class="st0" width="20" height="20"/>
	<polygon class="st0" points="280,180 260,180 260,160 240,160 240,180 220,180 220,200 200,200 180,200 160,200 160,220 180,220 
		200,220 200,240 200,260 220,260 220,240 220,220 240,220 240,200 260,200 260,220 280,220 280,200 	"/>
	<polygon class="st0" points="280,340 300,340 300,320 280,320 260,320 240,320 220,320 220,340 200,340 200,360 220,360 220,380 
		240,380 240,360 240,340 260,340 260,360 260,380 280,380 280,360 	"/>
	<path class="st0" d="M260,480v-20v-20h-20h-20h-20v20v20v20v20v20h20v-20h20v20h20h20v-20v-20h20v-20h-20H260z M220,500v-20h20v20
		H220z"/>
	<rect x="280" y="40" class="st0" width="20" height="20"/>
	<polygon class="st0" points="280,180 300,180 300,160 320,160 320,180 320,200 340,200 360,200 380,200 380,180 380,160 360,160 
		360,180 340,180 340,160 360,160 360,140 340,140 320,140 320,120 340,120 340,100 340,80 320,80 320,100 300,100 300,80 280,80 
		280,100 280,120 300,120 300,140 280,140 260,140 260,160 280,160 	"/>
	<rect x="300" y="60" class="st0" width="20" height="20"/>
	<rect x="320" y="280" class="st0" width="20" height="20"/>
	<rect x="320" y="500" class="st0" width="20" height="20"/>
	<rect x="340" y="60" class="st0" width="20" height="20"/>
	<rect x="360" y="40" class="st0" width="20" height="20"/>
	<rect x="360" y="80" class="st0" width="20" height="20"/>
	<rect x="360" y="220" class="st0" width="20" height="20"/>
	<rect x="360" y="500" class="st0" width="20" height="20"/>
	<rect x="380" y="200" class="st0" width="20" height="20"/>
	<rect x="380" y="520" class="st0" width="20" height="20"/>
	<polygon class="st0" points="420,300 420,280 440,280 440,300 460,300 460,280 460,260 440,260 420,260 420,240 400,240 400,260 
		380,260 360,260 360,240 340,240 320,240 320,220 300,220 280,220 280,240 300,240 300,260 280,260 280,280 280,300 300,300 
		300,280 320,280 320,260 340,260 340,280 360,280 380,280 380,300 400,300 	"/>
	<rect x="400" y="320" class="st0" width="20" height="20"/>
	<rect x="400" y="400" class="st0" width="20" height="20"/>
	<polygon class="st0" points="440,220 440,200 420,200 420,220 420,240 440,240 	"/>
	<rect x="420" y="300" class="st0" width="20" height="20"/>
	<polygon class="st0" points="460,80 440,80 440,100 440,120 440,140 460,140 480,140 500,140 500,120 500,100 500,80 480,80 	"/>
	<rect x="460" y="200" class="st0" width="20" height="20"/>
	<rect x="460" y="240" class="st0" width="20" height="20"/>
	<polygon class="st0" points="460,320 440,320 440,340 460,340 460,360 480,360 480,340 480,320 480,300 460,300 	"/>
	<path class="st0" d="M460,380v-20h-20h-20h-20v-20h-20v20h-20v-20h20v-20v-20h-20v20h-20v20h-20v20h20v20h-20h-20h-20v20h20v20h-20
		v20v20h20v-20h20v-20h20v-20h20v20v20h-20h-20v20h20h20v20h20h20h20v-20h20v20h20v-20h20v20v20h20v-20h20v20v20h-20h-20v-20h-20
		h-20v-20h-20v20v20v20h20h20h20h20h20h20v-20v-20v-20v-20v-20h-20v20h-20v-20h-20v-20h20v20h20v-20h20v-20h-20h-20v-20v-20h-20v20
		H460z M420,440h-20h-20v-20v-20v-20h20h20h20v20v20v20H420z"/>
	<polygon class="st0" points="520,220 520,200 500,200 500,220 500,240 500,260 520,260 520,280 500,280 480,280 480,300 500,300 
		500,320 500,340 520,340 520,360 540,360 540,340 540,320 520,320 520,300 540,300 540,280 540,260 540,240 520,240 	"/>
	<path class="st0" d="M520,40h-20h-20h-20h-20h-20h-20v20v20v20v20v20v20v20h20h20h20h20h20h20h20v-20v-20v-20v-20V80V60V40H520z
		 M520,80v20v20v20v20h-20h-20h-20h-20h-20v-20v-20v-20V80V60h20h20h20h20h20V80z"/>
</g>
</svg>
