<?xml version="1.0" encoding="utf-8"?>
<!-- Generator: Adobe Illustrator 20.0.0, SVG Export Plug-In . SVG Version: 6.00 Build 0)  -->
<svg version="1.1" id="Layer_1" xmlns="http://www.w3.org/2000/svg" xmlns:xlink="http://www.w3.org/1999/xlink" x="0px" y="0px"
	 viewBox="0 0 40 40" style="enable-background:new 0 0 40 40;" xml:space="preserve">
<style type="text/css">
	.st0{fill:#FB757F;}
</style>
<g>
	<path class="st0" d="M24.5,10.6c-1.1,0-2.1,0.9-2.1,2.1v4c-0.3-0.1-0.6-0.2-0.9-0.2c-0.6,0-1.1,0.2-1.5,0.6
		c-0.4-0.4-0.9-0.6-1.5-0.6c-0.3,0-0.6,0.1-0.9,0.2l-0.5,0.4c0,0-0.4-0.6-1.6-0.6s-2.1,0.9-2.1,2.1v4.4c0,3.6,2.9,6.5,6.5,6.5
		c3.5,0,6.4-2.9,6.5-6.4c0,0,0,0,0-0.1V12.7C26.5,11.5,25.6,10.6,24.5,10.6z M23.6,12.7c0-0.5,0.4-0.9,0.9-0.9s0.9,0.4,0.9,0.9v7.6
		c-0.5-0.4-1.2-0.7-1.8-0.8V12.7z M20.6,18.5c0-0.5,0.4-0.9,0.9-0.9s0.9,0.4,0.9,0.9v0.9h-1.8V18.5z M17.7,18.5
		c0-0.5,0.4-0.9,0.9-0.9s0.9,0.4,0.9,0.9v0.9h-1.8V18.5z M20,28.2c-2.9,0-5.3-2.4-5.3-5.3v-4.4c0-0.5,0.4-0.9,0.9-0.9
		s0.9,0.4,0.9,0.9V20c0,0.5,0.1,1.1,0.4,1.7c0.5,0.9,1.4,1.8,3.1,1.8h0.2c-0.5,0.5-0.8,1.3-0.8,2.4c0,0.3,0.3,0.6,0.6,0.6
		s0.6-0.3,0.6-0.6c0-2.3,2.1-2.3,2.4-2.4c0.3,0,0.6-0.3,0.6-0.6s-0.3-0.6-0.6-0.6H20c-0.8,0-1.3-0.2-1.6-0.6
		c-0.4-0.4-0.5-0.8-0.6-1.2H23c0.1,0,0.3,0,0.6,0.1c0.6,0.1,1.5,0.5,1.7,1.7c0,0.2,0.1,0.4,0.1,0.6c0,0.2,0,0.4,0,0.6
		C25,26.2,22.8,28.2,20,28.2z"/>
</g>
</svg>
