<?xml version="1.0" encoding="utf-8"?>
<!-- Generator: Adobe Illustrator 20.0.0, SVG Export Plug-In . SVG Version: 6.00 Build 0)  -->
<svg version="1.1" id="Layer_1" xmlns="http://www.w3.org/2000/svg" xmlns:xlink="http://www.w3.org/1999/xlink" x="0px" y="0px"
	 viewBox="0 0 40 40" style="enable-background:new 0 0 40 40;" xml:space="preserve">
<style type="text/css">
	.st0{fill:#FB757F;}
</style>
<path class="st0" d="M24.3,15.3c-1.2,0-1.3,0.3-1.3,0.3l-0.8-0.3c-0.2-0.1-0.5-0.1-0.7-0.1c-0.6,0-1.1,0.2-1.4,0.5
	c-0.4-0.3-0.9-0.5-1.4-0.5c-0.2,0-0.5,0-0.7,0.1l0-2.5c0-1.2-0.9-2.2-2-2.2c-1.1,0-2.4,0.5-2.4,2.1v8v2.4c0,0.3,0,0.5,0.1,0.8
	c0.1,0.9,0.4,1.8,0.9,2.5c1.3,1.9,3.2,2.9,5.6,2.9c0.1,0,0.1,0,0.2,0c3.2-0.1,5.9-2.7,6.1-5.9l0-6.3C26.4,16.1,25.5,15.3,24.3,15.3z
	 M20.8,17.1c0-0.2,0.3-0.5,0.7-0.5c0.4,0,0.7,0.2,0.7,0.5v3.3c0,0.2-0.3,0.5-0.7,0.5c-0.4,0-0.7-0.2-0.7-0.5V17.1z M18.7,16.7
	c0.4,0,0.7,0.2,0.7,0.5V19c0,0-0.1,0-0.1,0c-0.2-0.1-0.4-0.1-0.6-0.1H18h0l0-1.8C18,16.9,18.3,16.7,18.7,16.7z M15,12.7
	c0-0.7,0.5-0.6,0.9-0.6c0.4,0,0.5,0.4,0.5,0.7l0,4.3v0v1.7h-1c-0.1,0-0.3,0-0.4,0.1h0L15,12.7L15,12.7z M25,23.2
	c0,2.4-2.2,4.6-4.7,4.7c-2,0-3.5-0.7-4.5-2.2c-0.4-0.6-0.7-1.4-0.7-2.2c0-0.1,0-0.2,0-0.3v0v-2.4c0-0.1,0.1-0.2,0.1-0.2l0-0.1
	c0-0.1,0.1-0.2,0.3-0.2h1H18h0.7c0.2,0,0.4,0.2,0.4,0.5c0,0.1,0,0.1,0,0.2c0,0.4-0.2,0.6-0.4,0.6h-1.6v0.1v0.6v0.7h1.6
	c0.7,0,1.3-0.4,1.7-1.1c0.3,0.2,0.7,0.3,1.2,0.3c1.2,0,2.1-0.9,2.1-1.9l0-3.2c0-0.3,0.3-0.5,0.6-0.5c0.4,0,0.6,0.2,0.6,0.5L25,23.2
	L25,23.2z"/>
</svg>
